<?xml version="1.0" encoding="UTF-8"?>
<svg id="Layer_1" data-name="Layer 1" xmlns="http://www.w3.org/2000/svg" viewBox="0 0 171.04 154.29">
  <defs>
    <style>
      .cls-1 {
        fill: #fff;
      }
    </style>
  </defs>
  <path class="cls-1" d="M103.09,125.05l40.39,15.88c6.9,1.67,14.62-4.25,14.31-11.31-.45-10.01-23.43-22.11-30.59-28.67l-1.2-17.71c10.23,9.56,36.83,23.49,42.53,35.61,9.43,20.05-9.3,40.35-30.38,34.36-22.54-6.4-47.09-21.13-69.58-28.98-10.36-5.73-16.86-17.26-17.26-29.04l-34.49,26.23c-5.45,5.68-3.51,16.28,3.91,18.8,10.39,3.53,28.25-10.12,39.08-12.08l15.4,6.89c.3.39-.57,1.16-1.02,1.45-5.14,3.36-33.51,14.53-40.25,16.5-11.91,3.49-25.24-.18-30.97-11.93-8.04-16.48,1.52-26.2,13.05-35.86,10.3-8.64,47.76-39.05,57.92-42.63s18.5-2.3,28.15,1.77l-5.44-42.84c-2.49-7.69-12.01-10.6-18.41-5.4s-6.13,31.27-8.16,40.13l-14.77,9.11,6.47-47.78c11.86-26.12,43.42-22.45,48.99,6.74,4.45,23.3,5.45,48.8,9.23,72.37-1.07,12.29-7.69,20.91-16.92,28.39ZM80.93,74.53c-20.94,3.56-20.94,36.78,0,40.34,33.59,5.71,33.59-46.05,0-40.34Z"/>
</svg>